<?xml version="1.0" encoding="UTF-8" standalone="no"?>
<svg
   xmlns:dc="http://purl.org/dc/elements/1.1/"
   xmlns:cc="http://creativecommons.org/ns#"
   xmlns:rdf="http://www.w3.org/1999/02/22-rdf-syntax-ns#"
   xmlns:svg="http://www.w3.org/2000/svg"
   xmlns="http://www.w3.org/2000/svg"
   xmlns:sodipodi="http://sodipodi.sourceforge.net/DTD/sodipodi-0.dtd"
   xmlns:inkscape="http://www.inkscape.org/namespaces/inkscape"
   height="199.60001"
   viewBox="0 -44 173.49999 149.7"
   width="230.77217"
   version="1.1"
   id="svg3728"
   sodipodi:docname="flexible.svg"
   inkscape:version="0.92.1 r15371"
   inkscape:export-filename="C:\Users\Rodrigo\nuevaIdentidad2019\ICONOSeBOOK\chat_b.png"
   inkscape:export-xdpi="96"
   inkscape:export-ydpi="96">
  <metadata
     id="metadata3734">
    <rdf:RDF>
      <cc:Work
         rdf:about="">
        <dc:format>image/svg+xml</dc:format>
        <dc:type
           rdf:resource="http://purl.org/dc/dcmitype/StillImage" />
        <dc:title />
      </cc:Work>
    </rdf:RDF>
  </metadata>
  <defs
     id="defs3732" />
  <sodipodi:namedview
     pagecolor="#ffffff"
     bordercolor="#666666"
     borderopacity="1"
     objecttolerance="10"
     gridtolerance="10"
     guidetolerance="10"
     inkscape:pageopacity="0"
     inkscape:pageshadow="2"
     inkscape:window-width="1920"
     inkscape:window-height="1018"
     id="namedview3730"
     showgrid="false"
     inkscape:zoom="1"
     inkscape:cx="285.60764"
     inkscape:cy="17.803716"
     inkscape:window-x="-8"
     inkscape:window-y="-8"
     inkscape:window-maximized="1"
     inkscape:current-layer="g1105"
     fit-margin-top="0"
     fit-margin-left="0"
     fit-margin-right="0"
     fit-margin-bottom="-0.4"
     units="px" />
  <g
     id="g105"
     transform="matrix(0.80159607,0,0,0.80159607,-246.62588,-248.64303)"
     style="fill:#5351b5;fill-opacity:1">
    <g
       id="g48"
       style="fill:#5351b5;fill-opacity:1">
      <g
         id="g46"
         style="fill:#5351b5;fill-opacity:1">
        <g
           id="g1718"
           transform="translate(-533.33733,35.464389)">
          <g
             transform="matrix(1.0004229,0,0,1.0004229,841.00586,-41.00777)"
             id="g1105">
            <g
               id="g949"
               style="fill:#5351b5;fill-opacity:1"
               transform="matrix(0.4507269,0,0,0.4507269,0,246.076)">
              <g
                 id="g947"
                 style="fill:#5351b5;fill-opacity:1">
                <path
                   inkscape:connector-curvature="0"
                   d="m 240,232.003 h -48 c -4.418,-0.002 -8.002,3.578 -8.004,7.996 -0.001,1.243 0.288,2.468 0.844,3.58 L 200,273.891 v 30.112 c 0,22.091 17.909,40 40,40 22.091,0 40,-17.909 40,-40 v -32 c -0.026,-22.08 -17.92,-39.973 -40,-40 z m -35.056,16 H 240 c 10.168,0.012 19.229,6.418 22.632,16 h -49.688 z m 59.056,56 c 0,13.255 -10.745,24 -24,24 -13.255,0 -24,-10.745 -24,-24 v -24 h 48 z"
                   id="path945"
                   style="fill:#5351b5;fill-opacity:1" />
              </g>
            </g>
            <g
               id="g955"
               style="fill:#5351b5;fill-opacity:1"
               transform="matrix(0.4507269,0,0,0.4507269,0,246.076)">
              <g
                 id="g953"
                 style="fill:#5351b5;fill-opacity:1">
                <path
                   inkscape:connector-curvature="0"
                   d="m 272,344.003 h -64 c -22.08,0.026 -39.974,17.92 -40,40 v 56 c 0,4.418 3.582,8 8,8 h 128 c 4.418,0 8,-3.582 8,-8 v -56 c -0.026,-22.08 -17.92,-39.973 -40,-40 z m 24,88 h -16 v -24 c 0,-4.418 -3.582,-8 -8,-8 -4.418,0 -8,3.582 -8,8 v 24 h -48 v -24 c 0,-4.418 -3.582,-8 -8,-8 -4.418,0 -8,3.582 -8,8 v 24 h -16 v -48 c 0,-13.255 10.745,-24 24,-24 h 64 c 13.255,0 24,10.745 24,24 z"
                   id="path951"
                   style="fill:#5351b5;fill-opacity:1" />
              </g>
            </g>
            <g
               id="g961"
               style="fill:#5351b5;fill-opacity:1"
               transform="matrix(0.4507269,0,0,0.4507269,0,246.076)">
              <g
                 id="g959"
                 style="fill:#5351b5;fill-opacity:1">
                <path
                   inkscape:connector-curvature="0"
                   d="M 88,232.003 H 56 c -13.255,0 -24,10.745 -24,24 v 48 c 0,22.091 17.909,40 40,40 22.091,0 40,-17.909 40,-40 v -48 c 0,-13.255 -10.745,-24 -24,-24 z m 8,72 c 0,13.255 -10.745,24 -24,24 -13.255,0 -24,-10.745 -24,-24 v -24 h 48 z m 0,-40 H 48 v -8 c 0,-4.418 3.582,-8 8,-8 h 32 c 4.418,0 8,3.582 8,8 z"
                   id="path957"
                   style="fill:#5351b5;fill-opacity:1" />
              </g>
            </g>
            <g
               id="g967"
               style="fill:#5351b5;fill-opacity:1"
               transform="matrix(0.4507269,0,0,0.4507269,0,246.076)">
              <g
                 id="g965"
                 style="fill:#5351b5;fill-opacity:1">
                <path
                   inkscape:connector-curvature="0"
                   d="M 104,344.003 H 40 c -22.08,0.026 -39.974,17.92 -40,40 v 56 c 0,4.418 3.582,8 8,8 h 128 c 4.418,0 8,-3.582 8,-8 v -56 c -0.026,-22.08 -17.92,-39.973 -40,-40 z m 24,88 h -16 v -24 c 0,-4.418 -3.582,-8 -8,-8 -4.418,0 -8,3.582 -8,8 v 24 H 48 v -24 c 0,-4.418 -3.582,-8 -8,-8 -4.418,0 -8,3.582 -8,8 v 24 H 16 v -48 c 0,-13.255 10.745,-24 24,-24 h 64 c 13.255,0 24,10.745 24,24 z"
                   id="path963"
                   style="fill:#5351b5;fill-opacity:1" />
              </g>
            </g>
            <g
               id="g973"
               style="fill:#5351b5;fill-opacity:1"
               transform="matrix(0.4507269,0,0,0.4507269,0,246.076)">
              <g
                 id="g971"
                 style="fill:#5351b5;fill-opacity:1">
                <path
                   inkscape:connector-curvature="0"
                   d="m 479.163,284.473 c -0.001,-0.002 -0.002,-0.004 -0.003,-0.006 l -17.688,-35.376 c -14.766,-29.532 -50.677,-41.501 -80.209,-26.735 -11.569,5.785 -20.95,15.166 -26.735,26.735 l -17.688,35.376 c -1.976,3.952 -0.374,8.757 3.578,10.733 0.002,0.001 0.004,0.002 0.006,0.003 l 28.104,14.048 c 2.746,21.8 22.645,37.246 44.445,34.499 18.029,-2.271 32.228,-16.47 34.499,-34.499 v -0.04 l 28.104,-14.008 c 3.954,-1.972 5.559,-6.776 3.587,-10.73 z M 432,304.003 c 0,13.255 -10.745,24 -24,24 -13.255,0 -24,-10.745 -24,-24 v -24 h 48 z m 16,-12.944 v -19.056 c 0,-4.418 -3.582,-8 -8,-8 h -64 c -4.418,0 -8,3.582 -8,8 v 19.056 l -13.264,-6.632 14.104,-28.224 c 10.816,-21.628 37.117,-30.392 58.744,-19.576 8.471,4.236 15.34,11.105 19.576,19.576 l 14.104,28.224 z"
                   id="path969"
                   style="fill:#5351b5;fill-opacity:1" />
              </g>
            </g>
            <g
               id="g979"
               style="fill:#5351b5;fill-opacity:1"
               transform="matrix(0.4507269,0,0,0.4507269,0,246.076)">
              <g
                 id="g977"
                 style="fill:#5351b5;fill-opacity:1">
                <path
                   inkscape:connector-curvature="0"
                   d="m 440,344.003 h -64 c -22.08,0.026 -39.974,17.92 -40,40 v 56 c 0,4.418 3.582,8 8,8 h 128 c 4.418,0 8,-3.582 8,-8 v -56 c -0.026,-22.08 -17.92,-39.973 -40,-40 z m 24,88 h -16 v -24 c 0,-4.418 -3.582,-8 -8,-8 -4.418,0 -8,3.582 -8,8 v 24 h -48 v -24 c 0,-4.418 -3.582,-8 -8,-8 -4.418,0 -8,3.582 -8,8 v 24 h -16 v -48 c 0,-13.255 10.745,-24 24,-24 h 64 c 13.255,0 24,10.745 24,24 z"
                   id="path975"
                   style="fill:#5351b5;fill-opacity:1" />
              </g>
            </g>
            <g
               id="g985"
               style="fill:#5351b5;fill-opacity:1"
               transform="matrix(0.4507269,0,0,0.4507269,0,246.076)">
              <g
                 id="g983"
                 style="fill:#5351b5;fill-opacity:1">
                <path
                   inkscape:connector-curvature="0"
                   d="M 140.078,81.017 C 130.229,51.781 102.85,32.069 72,32.003 32.236,32.088 0.069,64.393 0.155,104.157 c 0.066,30.85 19.778,58.229 49.013,68.078 l 15.672,31.344 c 1.971,3.954 6.774,5.562 10.729,3.591 1.555,-0.775 2.816,-2.036 3.591,-3.591 L 94.832,172.235 C 132.516,159.54 152.773,118.7 140.078,81.017 Z m -14.14,37.992 c -5.267,18.87 -20.012,33.615 -38.882,38.882 -2.178,0.607 -3.997,2.106 -5.008,4.128 L 72,182.115 61.952,162.019 c -1.011,-2.022 -2.83,-3.521 -5.008,-4.128 C 27.155,149.576 9.747,118.686 18.062,88.897 26.377,59.108 57.267,41.7 87.056,50.015 c 29.789,8.315 47.197,39.205 38.882,68.994 z"
                   id="path981"
                   style="fill:#5351b5;fill-opacity:1" />
              </g>
            </g>
            <g
               id="g991"
               style="fill:#5351b5;fill-opacity:1"
               transform="matrix(0.4507269,0,0,0.4507269,0,246.076)">
              <g
                 id="g989"
                 style="fill:#5351b5;fill-opacity:1">
                <path
                   inkscape:connector-curvature="0"
                   d="M 308.078,81.017 C 298.229,51.781 270.85,32.069 240,32.003 c -39.764,0.085 -71.931,32.39 -71.845,72.154 0.066,30.85 19.778,58.229 49.013,68.078 l 15.672,31.344 c 1.971,3.954 6.774,5.562 10.729,3.591 1.555,-0.775 2.816,-2.036 3.591,-3.591 l 15.672,-31.344 C 300.516,159.54 320.773,118.7 308.078,81.017 Z m -14.14,37.992 c -5.267,18.87 -20.012,33.615 -38.882,38.882 -2.178,0.607 -3.997,2.106 -5.008,4.128 L 240,182.115 229.952,162.019 c -1.011,-2.022 -2.83,-3.521 -5.008,-4.128 -29.789,-8.315 -47.197,-39.205 -38.882,-68.994 8.315,-29.789 39.205,-47.197 68.994,-38.882 29.789,8.315 47.197,39.205 38.882,68.994 z"
                   id="path987"
                   style="fill:#5351b5;fill-opacity:1" />
              </g>
            </g>
            <g
               id="g997"
               style="fill:#5351b5;fill-opacity:1"
               transform="matrix(0.4507269,0,0,0.4507269,0,246.076)">
              <g
                 id="g995"
                 style="fill:#5351b5;fill-opacity:1">
                <path
                   inkscape:connector-curvature="0"
                   d="M 476.078,81.017 C 466.229,51.781 438.85,32.069 408,32.003 c -39.764,0.085 -71.931,32.39 -71.845,72.154 0.066,30.85 19.778,58.229 49.013,68.078 l 15.672,31.344 c 1.971,3.954 6.774,5.562 10.729,3.591 1.555,-0.775 2.816,-2.036 3.591,-3.591 l 15.672,-31.344 C 468.516,159.54 488.773,118.7 476.078,81.017 Z m -14.14,37.992 c -5.267,18.87 -20.012,33.615 -38.882,38.882 -2.178,0.607 -3.997,2.106 -5.008,4.128 L 408,182.115 397.952,162.019 c -1.011,-2.022 -2.83,-3.521 -5.008,-4.128 -29.789,-8.315 -47.197,-39.205 -38.882,-68.994 8.315,-29.789 39.205,-47.197 68.994,-38.882 29.789,8.315 47.197,39.205 38.882,68.994 z"
                   id="path993"
                   style="fill:#5351b5;fill-opacity:1" />
              </g>
            </g>
            <g
               id="g1017" />
            <g
               id="g1019" />
            <g
               id="g1021" />
            <g
               id="g1023" />
            <g
               id="g1025" />
            <g
               id="g1027" />
            <g
               id="g1029" />
            <g
               id="g1031" />
            <g
               id="g1033" />
            <g
               id="g1035" />
            <g
               id="g1037" />
            <g
               id="g1039" />
            <g
               id="g1041" />
            <g
               id="g1043" />
            <g
               id="g1045" />
            <rect
               y="281.0321"
               x="20.630287"
               height="23.653227"
               width="23.653227"
               id="rect1107"
               style="fill:#5351b5;fill-opacity:1;stroke:#5351b5;stroke-width:3.81329536;stroke-miterlimit:4;stroke-dasharray:none;stroke-opacity:1" />
            <circle
               r="11.940154"
               cy="292.85873"
               cx="108.17902"
               id="path1109"
               style="fill:#5351b5;fill-opacity:1;stroke:#5351b5;stroke-width:3.58621264;stroke-miterlimit:4;stroke-dasharray:none;stroke-opacity:1" />
            <path
               sodipodi:nodetypes="ccccc"
               inkscape:connector-curvature="0"
               id="rect1107-6"
               d="m 184.08213,282.92743 10.73502,21.90774 h -9.9357 -11.85873 z"
               style="fill:#5351b5;fill-opacity:1;stroke:#5351b5;stroke-width:3.5136261;stroke-miterlimit:4;stroke-dasharray:none;stroke-opacity:1" />
          </g>
        </g>
      </g>
    </g>
    <g
       id="g50"
       style="fill:#5351b5;fill-opacity:1" />
    <g
       id="g52"
       style="fill:#5351b5;fill-opacity:1" />
    <g
       id="g54"
       style="fill:#5351b5;fill-opacity:1" />
    <g
       id="g56"
       style="fill:#5351b5;fill-opacity:1" />
    <g
       id="g58"
       style="fill:#5351b5;fill-opacity:1" />
    <g
       id="g60"
       style="fill:#5351b5;fill-opacity:1" />
    <g
       id="g62"
       style="fill:#5351b5;fill-opacity:1" />
    <g
       id="g64"
       style="fill:#5351b5;fill-opacity:1" />
    <g
       id="g66"
       style="fill:#5351b5;fill-opacity:1" />
    <g
       id="g68"
       style="fill:#5351b5;fill-opacity:1" />
    <g
       id="g70"
       style="fill:#5351b5;fill-opacity:1" />
    <g
       id="g72"
       style="fill:#5351b5;fill-opacity:1" />
    <g
       id="g74"
       style="fill:#5351b5;fill-opacity:1" />
    <g
       id="g76"
       style="fill:#5351b5;fill-opacity:1" />
    <g
       id="g78"
       style="fill:#5351b5;fill-opacity:1" />
  </g>
</svg>
