<?xml version="1.0" encoding="UTF-8" standalone="no"?>
<svg
   xmlns:dc="http://purl.org/dc/elements/1.1/"
   xmlns:cc="http://creativecommons.org/ns#"
   xmlns:rdf="http://www.w3.org/1999/02/22-rdf-syntax-ns#"
   xmlns:svg="http://www.w3.org/2000/svg"
   xmlns="http://www.w3.org/2000/svg"
   xmlns:sodipodi="http://sodipodi.sourceforge.net/DTD/sodipodi-0.dtd"
   xmlns:inkscape="http://www.inkscape.org/namespaces/inkscape"
   viewBox="0 0 22.494814 25"
   width="179.95851"
   height="200"
   version="1.1"
   id="svg114"
   sodipodi:docname="interactivo.svg"
   inkscape:version="0.92.1 r15371">
  <metadata
     id="metadata120">
    <rdf:RDF>
      <cc:Work
         rdf:about="">
        <dc:format>image/svg+xml</dc:format>
        <dc:type
           rdf:resource="http://purl.org/dc/dcmitype/StillImage" />
        <dc:title></dc:title>
      </cc:Work>
    </rdf:RDF>
  </metadata>
  <defs
     id="defs118" />
  <sodipodi:namedview
     pagecolor="#ffffff"
     bordercolor="#666666"
     borderopacity="1"
     objecttolerance="10"
     gridtolerance="10"
     guidetolerance="10"
     inkscape:pageopacity="0"
     inkscape:pageshadow="2"
     inkscape:window-width="1920"
     inkscape:window-height="1018"
     id="namedview116"
     showgrid="false"
     fit-margin-top="0"
     fit-margin-left="0"
     fit-margin-right="0"
     fit-margin-bottom="0"
     inkscape:zoom="1.3037282"
     inkscape:cx="357.93454"
     inkscape:cy="74.519036"
     inkscape:window-x="-8"
     inkscape:window-y="-8"
     inkscape:window-maximized="1"
     inkscape:current-layer="Outline" />
  <g
     id="Outline"
     style="fill:#304ffe;fill-opacity:1"
     transform="matrix(1.0666667,0,0,1.0666667,-5.3333335,-41.133335)">
    <path
       d="m 10.076954,44.035393 c 2.435676,0 3.655025,-2.944622 1.932952,-4.666696 -1.722075,-1.722074 -4.6666963,-0.502725 -4.6666963,1.932951 0.00172,1.509092 1.2246527,2.732023 2.7337443,2.733745 z"
       id="path97"
       style="fill:#304ffe;fill-opacity:1;stroke-width:0.39053494"
       inkscape:connector-curvature="0"
       sodipodi:nodetypes="cscc" />
    <path
       d="m 7.0753027,43.155517 -0.296416,0.169102 C 5.6811934,43.94998 5.0024324,45.115273 5,46.378602 v 2.34321 c 0,0.64706 0.5245454,1.171604 1.1716048,1.171604 h 7.8106992 c 0.647059,0 1.171605,-0.524544 1.171605,-1.171604 v -2.34321 c -0.0024,-1.263329 -0.681194,-2.428622 -1.778888,-3.053983 l -0.296415,-0.169102 -0.207374,0.273375 c -1.402165,1.852771 -4.1863899,1.852771 -5.5885552,0 z"
       id="path99"
       style="fill:#304ffe;fill-opacity:1;stroke-width:0.39053494"
       inkscape:connector-curvature="0"
       sodipodi:nodetypes="cccsssscccccc" />
    <path
       d="M 14.763373,59.266256 A 2.7368689,2.7368689 0 0 0 17.497118,62 h 5.858024 a 2.7368689,2.7368689 0 0 0 2.733745,-2.733744 v -5.858025 a 2.7368689,2.7368689 0 0 0 -2.733745,-2.733744 h -5.858024 a 2.7368689,2.7368689 0 0 0 -2.733745,2.733744 z m 10.544444,0 a 1.9550179,1.9550179 0 0 1 -1.952675,1.952674 h -5.858024 a 1.9550179,1.9550179 0 0 1 -1.952674,-1.952674 v -4.686419 h 9.763373 z m -9.763373,-5.858025 a 1.9550179,1.9550179 0 0 1 1.952674,-1.952675 h 5.858024 a 1.9550179,1.9550179 0 0 1 1.952675,1.952675 v 0.390535 h -9.763373 z"
       id="path101"
       style="fill:#304ffe;fill-opacity:1;stroke-width:0.39053494"
       inkscape:connector-curvature="0" />
    <path
       d="m 17.383863,52.349882 a 0.39053494,0.39053494 0 1 0 0,0.554559 0.40303206,0.40303206 0 0 0 0.08202,-0.128877 0.36788391,0.36788391 0 0 0 0,-0.296806 0.3643691,0.3643691 0 0 0 -0.08202,-0.128876 z"
       id="path103"
       style="fill:#304ffe;fill-opacity:1;stroke-width:0.39053494"
       inkscape:connector-curvature="0" />
    <path
       d="m 18.590616,52.244437 a 0.24838023,0.24838023 0 0 0 -0.0703,0.02343 0.30539832,0.30539832 0 0 0 -0.07069,0.03515 0.6639094,0.6639094 0 0 0 -0.05819,0.04686 0.39600243,0.39600243 0 0 0 0,0.55456 l 0.05819,0.04686 a 0.30539832,0.30539832 0 0 0 0.07069,0.03515 0.24838023,0.24838023 0 0 0 0.0703,0.02343 0.58072546,0.58072546 0 0 0 0.07811,0.0078 0.39053494,0.39053494 0 0 0 0.277279,-0.667815 0.40537527,0.40537527 0 0 0 -0.355387,-0.105445 z"
       id="path105"
       style="fill:#304ffe;fill-opacity:1;stroke-width:0.39053494"
       inkscape:connector-curvature="0" />
    <path
       d="m 20.082459,52.267869 a 0.40303206,0.40303206 0 0 0 -0.128876,0.08202 0.39600243,0.39600243 0 0 0 0,0.554559 0.40303206,0.40303206 0 0 0 0.128876,0.08202 0.39053494,0.39053494 0 0 0 0.148404,0.03124 0.39053494,0.39053494 0 0 0 0.277279,-0.667814 0.39053494,0.39053494 0 0 0 -0.425683,-0.08202 z"
       id="path107"
       style="fill:#304ffe;fill-opacity:1;stroke-width:0.39053494"
       inkscape:connector-curvature="0" />
    <path
       d="m 20.764724,48.280508 1.418814,1.222374 1.222373,-1.418813 -0.08319,-1.119664 -0.90487,1.047805 a 7.4283651,7.4283651 0 0 0 -7.26395,-5.929492 v 0.78107 a 6.6488574,6.6488574 0 0 1 6.455152,5.094919 l -0.92752,-0.799035 z"
       id="path109"
       style="fill:#304ffe;fill-opacity:1;stroke-width:0.39053494"
       inkscape:connector-curvature="0" />
    <path
       d="m 7.9809532,52.287396 -1.4188134,-1.222374 -1.2223744,1.418813 0.083184,1.119664 0.9048694,-1.047805 a 7.4283651,7.4283651 0 0 0 7.2639502,5.929491 v -0.781069 a 6.6488574,6.6488574 0 0 1 -6.4551524,-5.09492 l 0.9275204,0.799035 z"
       id="path111"
       style="fill:#304ffe;fill-opacity:1;stroke-width:0.39053494"
       inkscape:connector-curvature="0" />
  </g>
</svg>
