<?xml version="1.0" encoding="UTF-8" standalone="no"?>
<!-- Created with Inkscape (http://www.inkscape.org/) -->

<svg
   xmlns:dc="http://purl.org/dc/elements/1.1/"
   xmlns:cc="http://creativecommons.org/ns#"
   xmlns:rdf="http://www.w3.org/1999/02/22-rdf-syntax-ns#"
   xmlns:svg="http://www.w3.org/2000/svg"
   xmlns="http://www.w3.org/2000/svg"
   xmlns:sodipodi="http://sodipodi.sourceforge.net/DTD/sodipodi-0.dtd"
   xmlns:inkscape="http://www.inkscape.org/namespaces/inkscape"
   width="247.75313"
   height="40"
   viewBox="0 0 65.551345 10.583334"
   version="1.1"
   id="svg6996"
   inkscape:version="0.92.1 r15371"
   sodipodi:docname="letrero_playmambo_con_logo_nuevo_blanco.svg"
   inkscape:export-filename="C:\Users\Rodrigo\Playmambo\letrero_playmambo.png"
   inkscape:export-xdpi="90"
   inkscape:export-ydpi="90">
  <defs
     id="defs6990" />
  <sodipodi:namedview
     id="base"
     pagecolor="#ffffff"
     bordercolor="#666666"
     borderopacity="1.0"
     inkscape:pageopacity="0.0"
     inkscape:pageshadow="2"
     inkscape:zoom="0.98994949"
     inkscape:cx="606.60922"
     inkscape:cy="-4.3364825"
     inkscape:document-units="mm"
     inkscape:current-layer="text2985"
     showgrid="false"
     inkscape:pagecheckerboard="true"
     units="px"
     inkscape:window-width="1920"
     inkscape:window-height="1018"
     inkscape:window-x="-8"
     inkscape:window-y="-8"
     inkscape:window-maximized="1"
     fit-margin-top="0"
     fit-margin-left="0"
     fit-margin-right="0"
     fit-margin-bottom="0"
     inkscape:measure-start="0,0"
     inkscape:measure-end="0,0" />
  <metadata
     id="metadata6993">
    <rdf:RDF>
      <cc:Work
         rdf:about="">
        <dc:format>image/svg+xml</dc:format>
        <dc:type
           rdf:resource="http://purl.org/dc/dcmitype/StillImage" />
        <dc:title></dc:title>
      </cc:Work>
    </rdf:RDF>
  </metadata>
  <g
     inkscape:label="Layer 1"
     inkscape:groupmode="layer"
     id="layer1"
     transform="translate(-83.720494,-326.45752)">
    <g
       id="g96"
       transform="matrix(1.1582866,0,0,1.1582866,-2.0308735,-38.77149)">
      <g
         transform="matrix(1.0665485,0,0,1.0665485,11.865309,178.73099)"
         style="font-style:normal;font-weight:normal;font-size:48px;line-height:125%;font-family:Sans;letter-spacing:0px;word-spacing:0px;fill:#ffffff;fill-opacity:1;stroke:none"
         id="text2985">
        <g
           id="g378"
           style="fill:#ffffff;fill-opacity:1"
           transform="matrix(0.1969981,0,0,0.1969981,46.805869,109.71557)">
          <g
             transform="translate(79.095885)"
             id="g224"
             style="fill:#ffffff;fill-opacity:1">
            <path
               inkscape:connector-curvature="0"
               style="font-variant:normal;font-weight:bold;font-stretch:normal;font-family:Slot;-inkscape-font-specification:'Slot Bold';fill:#ffffff;fill-opacity:1"
               id="path2990"
               d="m 58.582838,109.36813 c 0.002,-0.40998 0.034,-0.81398 0.096,-1.21199 0.062,-0.39798 0.141996,-0.77797 0.239997,-1.13998 0.510991,-1.63596 1.408979,-2.95994 2.693965,-3.97195 1.284978,-1.01197 2.770957,-1.54396 4.457943,-1.59598 h 0.048 c 2.142961,0.057 3.928936,0.83101 5.35793,2.32197 1.428966,1.491 2.170956,3.35697 2.225972,5.59793 -0.002,0.16801 -0.02202,0.32401 -0.06,0.46799 -0.03802,0.14402 -0.08202,0.27601 -0.131997,0.39599 -0.174014,0.31702 -0.414011,0.57101 -0.719991,0.76199 -0.306011,0.19102 -0.642006,0.28902 -1.007987,0.294 -0.390009,-0.005 -0.738004,-0.10298 -1.043986,-0.294 -0.30601,-0.19098 -0.534007,-0.44497 -0.683992,-0.76199 -0.136011,-0.23998 -0.20001,-0.52797 -0.191997,-0.86398 -0.003,-0.55398 -0.105012,-1.07797 -0.305997,-1.57198 -0.201009,-0.49398 -0.483005,-0.94597 -0.845988,-1.35599 -0.363008,-0.36297 -0.765003,-0.64497 -1.205987,-0.84599 -0.441004,-0.20097 -0.902997,-0.30297 -1.38598,-0.30599 -0.484002,0.003 -0.943996,0.10502 -1.379982,0.30599 -0.436002,0.20102 -0.823997,0.48302 -1.163985,0.84599 -0.384001,0.41002 -0.671997,0.86201 -0.863989,1.35599 -0.192003,0.49401 -0.288002,1.018 -0.287996,1.57198 0.008,0.33601 -0.056,0.624 -0.191998,0.86398 -0.171003,0.31702 -0.405001,0.57101 -0.701992,0.76199 -0.297,0.19102 -0.638995,0.28902 -1.025986,0.294 -0.386998,-0.005 -0.728993,-0.10298 -1.025987,-0.294 -0.296998,-0.19098 -0.530995,-0.44497 -0.70199,-0.76199 -0.05,-0.11998 -0.094,-0.25198 -0.131999,-0.39599 -0.038,-0.14398 -0.058,-0.29998 -0.06,-0.46799 z m 15.119805,9.35988 c -0.05501,2.24097 -0.797005,4.10695 -2.225971,5.59792 -1.428995,1.49098 -3.21497,2.26497 -5.357931,2.32197 -0.673,-0.003 -1.318991,-0.093 -1.937975,-0.26999 -0.618999,-0.177 -1.20499,-0.423 -1.757977,-0.73799 v 9.07188 c -0.01401,0.54198 -0.202003,0.99398 -0.563993,1.35598 -0.362,0.36199 -0.813993,0.54998 -1.355983,0.56399 -0.541997,-0.014 -0.993991,-0.202 -1.355984,-0.56399 -0.361996,-0.362 -0.549993,-0.814 -0.563991,-1.35598 v -23.4237 c 0.241998,0.26499 0.525996,0.46698 0.851996,0.60596 0.325994,0.13901 0.681991,0.209 1.067989,0.20999 0.385992,-9.8e-4 0.741987,-0.071 1.067987,-0.21 0.325992,-0.13898 0.609989,-0.34098 0.851993,-0.60599 l -1.4e-5,7.43995 c -6e-6,0.557 0.09599,1.08699 0.287996,1.58997 0.191992,0.503 0.479988,0.949 0.863989,1.33799 0.339988,0.384 0.727983,0.67199 1.163984,0.86399 0.435986,0.192 0.89598,0.288 1.379983,0.28799 0.482985,10e-6 0.944978,-0.096 1.385983,-0.28799 0.440983,-0.192 0.842977,-0.47999 1.205984,-0.86399 0.362983,-0.38899 0.644979,-0.83498 0.845988,-1.33798 0.200984,-0.50299 0.302983,-1.03298 0.305997,-1.58998 v -7.43991 c 0.242001,0.26499 0.526008,0.46698 0.852022,0.60596 0.325987,0.13901 0.681984,0.209 1.067993,0.20999 0.361982,-9.8e-4 0.705978,-0.071 1.03199,-0.21 0.32598,-0.13898 0.621977,-0.34098 0.887991,-0.60599 z" />
            <path
               inkscape:connector-curvature="0"
               style="font-variant:normal;font-weight:bold;font-stretch:normal;font-family:Slot;-inkscape-font-specification:'Slot Bold';fill:#ffffff;fill-opacity:1"
               id="path2992"
               d="m 81.735289,116.76003 c -0.241997,-0.242 -0.525991,-0.43001 -0.851981,-0.56402 -0.325999,-0.13399 -0.681993,-0.20199 -1.067985,-0.204 -0.365,0.002 -0.714996,0.07 -1.049991,0.204 -0.334999,0.13401 -0.624995,0.32201 -0.86999,0.56399 l -4e-6,-21.69569 c 0.014,-0.541962 0.201996,-0.993956 0.563994,-1.355984 0.361993,-0.361962 0.813986,-0.549959 1.355981,-0.563991 0.541989,0.01403 0.993982,0.202031 1.355982,0.563993 0.361991,0.362029 0.549988,0.814022 0.563994,1.355982 z m -1.919976,0.048 c 0.541989,0.014 0.993982,0.20201 1.355982,0.56399 0.361991,0.36201 0.549988,0.814 0.563994,1.35599 0.003,0.557 0.104993,1.08699 0.305995,1.58997 0.200991,0.503 0.482988,0.949 0.84599,1.33799 0.339988,0.384 0.727983,0.67199 1.163984,0.86399 0.435986,0.192 0.89598,0.288 1.379983,0.28799 0.532983,-9.9e-4 1.038976,-0.11899 1.517979,-0.35399 0.478983,-0.235 0.900978,-0.58099 1.265985,-1.03799 0.354984,-0.40899 0.784978,-0.63498 1.289984,-0.67799 0.50498,-0.043 0.970973,0.103 1.397982,0.43799 0.431979,0.355 0.671976,0.785 0.71999,1.28999 0.04798,0.50499 -0.09601,0.97099 -0.431994,1.39798 -0.729005,0.89299 -1.586993,1.57898 -2.573967,2.05797 -0.986999,0.479 -2.048984,0.72099 -3.185959,0.72599 -2.11998,-0.057 -3.891956,-0.83099 -5.315932,-2.32197 -1.423984,-1.49097 -2.163974,-3.35695 -2.219971,-5.59792 0.014,-0.54199 0.201996,-0.99398 0.563994,-1.35599 0.361993,-0.36198 0.813986,-0.54998 1.355981,-0.56399 z" />
            <path
               inkscape:connector-curvature="0"
               style="font-variant:normal;font-weight:bold;font-stretch:normal;font-family:Slot;-inkscape-font-specification:'Slot Bold';fill:#ffffff;fill-opacity:1"
               id="path2996"
               d="m 118.20404,116.76003 c -0.242,-0.242 -0.52599,-0.43001 -0.85198,-0.56402 -0.326,-0.13399 -0.682,-0.20199 -1.06799,-0.204 -0.386,0.002 -0.74199,0.07 -1.06799,0.204 -0.326,0.13401 -0.60999,0.32201 -0.85199,0.56399 v -13.3918 c 0.014,-0.54197 0.20199,-0.99396 0.56399,-1.35598 0.36199,-0.36197 0.81399,-0.54997 1.35598,-0.56399 0.54199,0.014 0.99399,0.20202 1.35599,0.56399 0.36199,0.36202 0.54998,0.81401 0.56399,1.35598 z m 11.27985,0 c -0.26599,-0.242 -0.56197,-0.43001 -0.88795,-0.56402 -0.32601,-0.13399 -0.67,-0.20199 -1.03198,-0.204 -0.38601,0.002 -0.74201,0.07 -1.06799,0.204 -0.32601,0.13401 -0.61001,0.32201 -0.85199,0.56399 l -4e-5,-13.3918 c 0.014,-0.54197 0.20199,-0.99396 0.564,-1.35598 0.36198,-0.36197 0.81397,-0.54997 1.35598,-0.56399 0.54198,0.014 0.99397,0.20202 1.35598,0.56399 0.36198,0.36202 0.54998,0.81401 0.56399,1.35598 z m -7.5839,9.88787 c -2.11998,-0.057 -3.89195,-0.83099 -5.31593,-2.32197 -1.42399,-1.49097 -2.16397,-3.35695 -2.21997,-5.59792 0.014,-0.54199 0.20199,-0.99398 0.56399,-1.35599 0.36199,-0.36198 0.81399,-0.54998 1.35598,-0.56399 0.54199,0.014 0.99399,0.20201 1.35599,0.56399 0.36199,0.36201 0.54998,0.814 0.56399,1.35599 -1e-5,0.557 0.096,1.08699 0.28799,1.58997 0.192,0.503 0.47999,0.949 0.86399,1.33799 0.33999,0.384 0.72799,0.67199 1.16399,0.86399 0.43598,0.192 0.89598,0.288 1.37998,0.28799 0.48299,10e-6 0.94498,-0.096 1.38598,-0.28799 0.44099,-0.192 0.84298,-0.47999 1.20599,-0.86399 0.36298,-0.38899 0.64498,-0.83498 0.84599,-1.33798 0.20098,-0.50299 0.30298,-1.03298 0.30599,-1.58998 0.014,-0.54199 0.20199,-0.99398 0.564,-1.35599 0.36198,-0.36198 0.81397,-0.54998 1.35598,-0.56399 0.54198,0.014 0.99397,0.20201 1.35598,0.56399 0.36198,0.36201 0.54998,0.814 0.56399,1.35599 -0.055,2.24097 -0.797,4.10695 -2.22597,5.59792 -1.42899,1.49098 -3.21497,2.26497 -5.35793,2.32197 z m 7.5839,2.06398 c -0.055,2.24096 -0.797,4.10694 -2.22597,5.59792 -1.42899,1.49098 -3.21497,2.26496 -5.35793,2.32197 -1.01599,-10e-4 -1.97198,-0.155 -2.86796,-0.46199 -0.896,-0.30701 -1.68399,-0.761 -2.36397,-1.36198 -0.747,-0.657 -1.31699,-1.44299 -1.70998,-2.35797 -0.393,-0.915 -0.59099,-1.90498 -0.59399,-2.96996 0.014,-0.542 0.20199,-0.99399 0.56399,-1.35599 0.36199,-0.36199 0.81399,-0.54999 1.35598,-0.56399 0.54199,0.014 0.99399,0.202 1.35599,0.564 0.36199,0.36199 0.54998,0.81398 0.56399,1.35598 -1e-5,1.05598 0.33599,1.87197 1.00799,2.44797 0.33998,0.28799 0.73998,0.50398 1.19998,0.64799 0.45999,0.14399 0.95598,0.21599 1.48798,0.21599 0.48299,0 0.94498,-0.096 1.38598,-0.28799 0.44099,-0.19201 0.84298,-0.48 1.20599,-0.86399 0.36298,-0.389 0.64498,-0.83499 0.84599,-1.33798 0.20098,-0.503 0.30298,-1.03299 0.30599,-1.58998 v -2.15998 c 0.84398,-0.43699 1.59197,-1.00298 2.24397,-1.69797 0.65198,-0.69499 1.18397,-1.48898 1.59598,-2.38197 z" />
            <path
               inkscape:connector-curvature="0"
               style="font-variant:normal;font-weight:bold;font-stretch:normal;font-family:Slot;-inkscape-font-specification:'Slot Bold';fill:#ffffff;fill-opacity:1"
               id="path2998"
               d="m 160.07625,124.72793 c -0.014,0.54199 -0.20203,0.99399 -0.56399,1.35598 -0.36203,0.362 -0.81402,0.54999 -1.35599,0.56399 -0.56302,-0.014 -1.02101,-0.20199 -1.37398,-0.56399 -0.35302,-0.36199 -0.53502,-0.81399 -0.54599,-1.35598 v -15.3598 c -0.003,-0.55698 -0.10503,-1.08697 -0.306,-1.58998 -0.20102,-0.50298 -0.48302,-0.94897 -0.84599,-1.33799 -0.36302,-0.38397 -0.76501,-0.67197 -1.20598,-0.86399 -0.44102,-0.19197 -0.90301,-0.28797 -1.38598,-0.28799 -0.48402,2e-5 -0.94401,0.096 -1.37999,0.28799 -0.43601,0.19202 -0.824,0.48002 -1.16398,0.86399 -0.23202,0.23202 -0.44001,0.48802 -0.62399,0.76799 -0.17002,-0.69697 -0.41802,-1.35496 -0.74399,-1.97397 -0.32602,-0.61897 -0.71801,-1.19296 -1.17599,-1.72198 0.67698,-0.65297 1.44697,-1.15896 2.30997,-1.51798 0.86297,-0.35897 1.78896,-0.54097 2.77797,-0.54599 2.14295,0.057 3.92892,0.83101 5.35793,2.32197 1.42895,1.491 2.17094,3.35697 2.22597,5.59793 z m -11.27986,-15.3118 v 0.19199 c -0.059,0.49201 -0.26501,0.90001 -0.61799,1.22399 -0.35301,0.32401 -0.787,0.492 -1.30198,0.50399 -0.51501,-0.012 -0.949,-0.17998 -1.30198,-0.50399 -0.35301,-0.32398 -0.55901,-0.73198 -0.618,-1.22399 v -0.19199 c -0.028,-1.15697 -0.392,-2.11896 -1.09198,-2.88597 -0.7,-0.76697 -1.56799,-1.16496 -2.60397,-1.19398 -1.05899,0.029 -1.94098,0.42701 -2.64597,1.19398 -0.70499,0.76701 -1.07099,1.729 -1.09798,2.88597 v 0.19199 c -0.059,0.49201 -0.265,0.90001 -0.61799,1.22399 -0.353,0.32401 -0.787,0.492 -1.30199,0.50399 -0.51499,-0.012 -0.94899,-0.17998 -1.30198,-0.50399 -0.353,-0.32398 -0.55899,-0.73198 -0.61799,-1.22399 v -0.19199 c 0.055,-2.24096 0.79699,-4.10693 2.22597,-5.59793 1.42898,-1.49096 3.21495,-2.26495 5.35793,-2.32197 1.11298,0.009 2.15096,0.24302 3.11396,0.70199 0.96298,0.45902 1.79696,1.08901 2.50197,1.88997 0.58098,0.69802 1.03897,1.47401 1.37398,2.32797 0.33498,0.85401 0.51698,1.774 0.54599,2.75997 z m -13.19983,2.73596 c 0.38599,-0.002 0.74199,-0.07 1.06799,-0.204 0.32599,-0.13398 0.60999,-0.32198 0.85199,-0.56399 v 13.34383 c -0.014,0.54199 -0.202,0.99399 -0.56399,1.35598 -0.362,0.362 -0.814,0.54999 -1.35599,0.56399 -0.54199,-0.014 -0.99399,-0.20199 -1.35598,-0.56399 -0.362,-0.36199 -0.54999,-0.81399 -0.56399,-1.35598 V 111.3841 c 0.26599,0.24201 0.56199,0.43001 0.88799,0.56399 0.32599,0.13402 0.66998,0.20201 1.03198,0.204 z m 13.19983,12.57584 c -0.014,0.54199 -0.20201,0.99399 -0.56399,1.35598 -0.36201,0.362 -0.814,0.54999 -1.35598,0.56399 -0.54201,-0.014 -0.994,-0.20199 -1.35599,-0.56399 -0.362,-0.36199 -0.55,-0.81399 -0.56399,-1.35598 V 111.3841 c 0.242,0.24199 0.52601,0.42998 0.85202,0.56396 0.32599,0.134 0.68199,0.202 1.068,0.20399 0.36498,-0.002 0.71498,-0.07 1.04999,-0.204 0.33498,-0.13398 0.62497,-0.32198 0.86999,-0.56399 z" />
            <path
               inkscape:connector-curvature="0"
               style="font-variant:normal;font-weight:bold;font-stretch:normal;font-family:Slot;-inkscape-font-specification:'Slot Bold';fill:#ffffff;fill-opacity:1"
               id="path3002"
               d="m 209.95125,124.72793 c -0.014,0.54199 -0.20203,0.99399 -0.56399,1.35598 -0.36203,0.362 -0.81402,0.54999 -1.35599,0.56399 -0.56302,-0.014 -1.02101,-0.20199 -1.37398,-0.56399 -0.35302,-0.36199 -0.53502,-0.81399 -0.54599,-1.35598 v -15.3598 c -0.003,-0.55698 -0.10503,-1.08697 -0.306,-1.58998 -0.20102,-0.50298 -0.48302,-0.94897 -0.84599,-1.33799 -0.36302,-0.38397 -0.76501,-0.67197 -1.20598,-0.86399 -0.44102,-0.19197 -0.90301,-0.28797 -1.38598,-0.28799 -0.48402,2e-5 -0.94401,0.096 -1.37999,0.28799 -0.43601,0.19202 -0.824,0.48002 -1.16398,0.86399 -0.23202,0.23202 -0.44001,0.48802 -0.62399,0.76799 -0.17002,-0.69697 -0.41802,-1.35496 -0.74399,-1.97397 -0.32602,-0.61897 -0.71801,-1.19296 -1.17599,-1.72198 0.67698,-0.65297 1.44697,-1.15896 2.30997,-1.51798 0.86297,-0.35897 1.78896,-0.54097 2.77797,-0.54599 2.14295,0.057 3.92892,0.83101 5.35793,2.32197 1.42895,1.491 2.17094,3.35697 2.22597,5.59793 z m -11.27986,-15.3118 v 0.19199 c -0.059,0.49201 -0.26501,0.90001 -0.61799,1.22399 -0.35301,0.32401 -0.787,0.492 -1.30198,0.50399 -0.51501,-0.012 -0.949,-0.17998 -1.30198,-0.50399 -0.35301,-0.32398 -0.55901,-0.73198 -0.618,-1.22399 v -0.19199 c -0.028,-1.15697 -0.392,-2.11896 -1.09198,-2.88597 -0.7,-0.76697 -1.56799,-1.16496 -2.60397,-1.19398 -1.05899,0.029 -1.94098,0.42701 -2.64597,1.19398 -0.70499,0.76701 -1.07099,1.729 -1.09798,2.88597 v 0.19199 c -0.059,0.49201 -0.265,0.90001 -0.61799,1.22399 -0.353,0.32401 -0.787,0.492 -1.30199,0.50399 -0.51499,-0.012 -0.94899,-0.17998 -1.30198,-0.50399 -0.353,-0.32398 -0.55899,-0.73198 -0.61799,-1.22399 v -0.19199 c 0.055,-2.24096 0.79699,-4.10693 2.22597,-5.59793 1.42898,-1.49096 3.21495,-2.26495 5.35793,-2.32197 1.11298,0.009 2.15096,0.24302 3.11396,0.70199 0.96298,0.45902 1.79696,1.08901 2.50197,1.88997 0.58098,0.69802 1.03897,1.47401 1.37398,2.32797 0.33498,0.85401 0.51698,1.774 0.54599,2.75997 z m -13.19983,2.73596 c 0.38599,-0.002 0.74199,-0.07 1.06799,-0.204 0.32599,-0.13398 0.60999,-0.32198 0.85199,-0.56399 v 13.34383 c -0.014,0.54199 -0.202,0.99399 -0.56399,1.35598 -0.362,0.362 -0.814,0.54999 -1.35599,0.56399 -0.54199,-0.014 -0.99399,-0.20199 -1.35598,-0.56399 -0.362,-0.36199 -0.54999,-0.81399 -0.56399,-1.35598 V 111.3841 c 0.26599,0.24201 0.56199,0.43001 0.88799,0.56399 0.32599,0.13402 0.66998,0.20201 1.03198,0.204 z m 13.19983,12.57584 c -0.014,0.54199 -0.20201,0.99399 -0.56399,1.35598 -0.36201,0.362 -0.814,0.54999 -1.35598,0.56399 -0.54201,-0.014 -0.994,-0.20199 -1.35599,-0.56399 -0.362,-0.36199 -0.55,-0.81399 -0.56399,-1.35598 V 111.3841 c 0.242,0.24199 0.52601,0.42998 0.85202,0.56396 0.32599,0.134 0.68199,0.202 1.068,0.20399 0.36498,-0.002 0.71498,-0.07 1.04999,-0.204 0.33498,-0.13398 0.62497,-0.32198 0.86999,-0.56399 z" />
            <path
               inkscape:connector-curvature="0"
               style="font-variant:normal;font-weight:bold;font-stretch:normal;font-family:Slot;-inkscape-font-specification:'Slot Bold';fill:#ffffff;fill-opacity:1"
               id="path3004"
               d="m 217.95404,101.68822 c -0.844,0.43702 -1.59199,1.00301 -2.24397,1.69798 -0.652,0.69502 -1.18399,1.48901 -1.59598,2.38197 V 95.06431 c 0.014,-0.541962 0.20199,-0.993956 0.56399,-1.355984 0.36199,-0.361962 0.81399,-0.549959 1.35598,-0.563991 0.54199,0.01403 0.99399,0.202031 1.35599,0.563993 0.36199,0.362029 0.54998,0.814022 0.56399,1.355982 z m -3.83995,7.8239 c 0.002,-0.40997 0.034,-0.81397 0.096,-1.21198 0.062,-0.39798 0.14199,-0.77797 0.23999,-1.13999 0.511,-1.63595 1.40898,-2.95994 2.69397,-3.97195 1.28498,-1.01196 2.77096,-1.54395 4.45794,-1.59597 h 0.048 c 2.14296,0.057 3.92894,0.83101 5.35793,2.32197 1.42897,1.491 2.17096,3.35697 2.22597,5.59792 -0.002,0.16802 -0.022,0.32402 -0.06,0.468 -0.038,0.14401 -0.082,0.27601 -0.13199,0.39599 -0.17402,0.31701 -0.41401,0.57101 -0.71999,0.76199 -0.30602,0.19102 -0.64201,0.28901 -1.00799,0.294 -0.39001,-0.005 -0.73801,-0.10298 -1.04399,-0.294 -0.30601,-0.19098 -0.534,-0.44498 -0.68399,-0.76199 -0.13601,-0.23998 -0.20001,-0.52797 -0.192,-0.86399 -0.003,-0.55397 -0.10501,-1.07796 -0.30599,-1.57198 -0.20101,-0.49397 -0.48301,-0.94596 -0.84599,-1.35598 -0.36301,-0.36297 -0.765,-0.64497 -1.20599,-0.84599 -0.441,-0.20097 -0.903,-0.30297 -1.38598,-0.30599 -0.484,0.003 -0.94399,0.10502 -1.37998,0.30599 -0.436,0.20102 -0.824,0.48302 -1.16399,0.84599 -0.384,0.41002 -0.67199,0.86201 -0.86399,1.35598 -0.192,0.49402 -0.288,1.01801 -0.28799,1.57198 0.008,0.33602 -0.056,0.62401 -0.192,0.86399 -0.171,0.31701 -0.405,0.57101 -0.70199,0.76199 -0.297,0.19102 -0.639,0.28901 -1.02599,0.294 -0.38699,-0.005 -0.72899,-0.10298 -1.02598,-0.294 -0.297,-0.19098 -0.531,-0.44498 -0.70199,-0.76199 -0.05,-0.11998 -0.094,-0.25198 -0.132,-0.39599 -0.038,-0.14398 -0.058,-0.29998 -0.06,-0.468 z m 15.1198,9.21589 c -0.055,2.24097 -0.797,4.10695 -2.22597,5.59792 -1.42899,1.49098 -3.21497,2.26497 -5.35793,2.32197 -2.11998,-0.057 -3.89195,-0.83099 -5.31593,-2.32197 -1.42399,-1.49097 -2.16397,-3.35695 -2.21997,-5.59792 v -7.24791 c 0.242,0.24399 0.52599,0.43998 0.85199,0.58796 0.326,0.148 0.68199,0.224 1.06799,0.22799 0.38599,-0.004 0.74199,-0.08 1.06799,-0.228 0.32599,-0.14798 0.60999,-0.34398 0.85199,-0.58799 l -1e-5,7.24795 c -1e-5,0.557 0.096,1.08699 0.28799,1.58997 0.192,0.503 0.47999,0.949 0.86399,1.33799 0.33999,0.363 0.72799,0.64499 1.16399,0.84599 0.43598,0.201 0.89598,0.303 1.37998,0.30599 0.48299,-0.003 0.94498,-0.10499 1.38598,-0.30599 0.44099,-0.201 0.84298,-0.48299 1.20599,-0.84599 0.36298,-0.38899 0.64498,-0.83498 0.84599,-1.33798 0.20098,-0.50299 0.30298,-1.03298 0.30599,-1.58998 v -7.24791 c 0.242,0.24399 0.52601,0.43998 0.85202,0.58796 0.32599,0.148 0.68199,0.224 1.068,0.22799 0.36198,-0.004 0.70598,-0.08 1.03199,-0.228 0.32598,-0.14798 0.62197,-0.34398 0.88799,-0.58799 z" />
            <path
               inkscape:connector-curvature="0"
               style="font-variant:normal;font-weight:bold;font-stretch:normal;font-family:Slot;-inkscape-font-specification:'Slot Bold';fill:#ffffff;fill-opacity:1"
               id="path3006"
               d="m 240.96249,101.44823 c -2.11998,0.057 -3.89195,0.83101 -5.31593,2.32197 -1.42399,1.491 -2.16397,3.35697 -2.21997,5.59793 v 7.3919 c 0.242,-0.242 0.52599,-0.43001 0.85199,-0.56402 0.326,-0.13399 0.68199,-0.20199 1.06799,-0.204 0.38599,0.002 0.74199,0.07 1.06799,0.204 0.32599,0.13401 0.60999,0.32201 0.85199,0.56399 l -1e-5,-7.39187 c -1e-5,-0.55698 0.096,-1.08697 0.28799,-1.58998 0.192,-0.50298 0.47999,-0.94897 0.86399,-1.33799 0.33999,-0.38397 0.72799,-0.67197 1.16399,-0.86399 0.43598,-0.19197 0.89598,-0.28797 1.37998,-0.28799 0.48299,2e-5 0.94498,0.096 1.38598,0.28799 0.44099,0.19202 0.84298,0.48002 1.20599,0.86399 0.36298,0.38902 0.64498,0.83501 0.84599,1.33799 0.20098,0.50301 0.30298,1.033 0.30599,1.58998 v 7.3919 c 0.242,-0.242 0.52601,-0.43001 0.85202,-0.56402 0.32599,-0.13399 0.68199,-0.20199 1.068,-0.204 0.36198,0.002 0.70598,0.07 1.03199,0.204 0.32598,0.13401 0.62197,0.32201 0.88799,0.56399 l -5e-5,-7.39187 c -0.055,-2.24096 -0.797,-4.10693 -2.22597,-5.59793 -1.42899,-1.49096 -3.21497,-2.26495 -5.35793,-2.32197 z m 5.66393,15.3598 c -0.39001,0.005 -0.73801,0.10301 -1.04399,0.294 -0.30601,0.191 -0.534,0.445 -0.68399,0.76199 -0.13601,0.24 -0.20001,0.528 -0.192,0.86399 -0.003,0.557 -0.10501,1.08699 -0.30599,1.58997 -0.20101,0.503 -0.48301,0.949 -0.84599,1.33799 -0.36301,0.363 -0.765,0.64499 -1.20599,0.84599 -0.441,0.201 -0.903,0.303 -1.38598,0.30599 -0.484,-0.003 -0.94399,-0.10499 -1.37998,-0.30599 -0.436,-0.201 -0.824,-0.48299 -1.16399,-0.84599 -0.384,-0.38899 -0.67199,-0.83498 -0.86399,-1.33798 -0.192,-0.50299 -0.288,-1.03298 -0.28799,-1.58998 0.008,-0.33599 -0.056,-0.62399 -0.192,-0.86399 -0.171,-0.31699 -0.405,-0.57099 -0.70199,-0.76199 -0.297,-0.19099 -0.639,-0.28899 -1.02599,-0.294 -0.38699,0.005 -0.72899,0.10301 -1.02598,0.294 -0.297,0.191 -0.531,0.445 -0.70199,0.76199 -0.05,0.12 -0.094,0.252 -0.132,0.39599 -0.038,0.14401 -0.058,0.30001 -0.06,0.468 0.056,2.24097 0.79599,4.10695 2.21997,5.59792 1.42398,1.49098 3.19595,2.26497 5.31593,2.32197 h 0.048 c 1.70797,-0.031 3.19995,-0.55699 4.47594,-1.57798 1.27597,-1.02098 2.16796,-2.35096 2.67597,-3.98994 0.12098,-0.36199 0.21498,-0.74199 0.28199,-1.13999 0.067,-0.39799 0.10099,-0.80198 0.102,-1.21198 -0.002,-0.16799 -0.022,-0.32399 -0.06,-0.468 -0.038,-0.14399 -0.082,-0.27599 -0.13199,-0.39599 -0.17402,-0.31699 -0.41401,-0.57099 -0.71999,-0.76199 -0.30602,-0.19099 -0.64201,-0.28899 -1.00799,-0.294 z" />
            <path
               inkscape:connector-curvature="0"
               style="font-style:normal;font-variant:normal;font-weight:bold;font-stretch:normal;font-size:48px;line-height:125%;font-family:Slot;-inkscape-font-specification:'Slot Bold';letter-spacing:0px;word-spacing:0px;fill:#ffffff;fill-opacity:1;stroke:none;stroke-width:1"
               id="path3006-0"
               d="m 171.82299,126.6479 c -2.11998,-0.057 -3.89195,-0.83101 -5.31593,-2.32197 -1.42399,-1.491 -2.16397,-3.35697 -2.21997,-5.59793 v -7.3919 c 0.242,0.242 0.52599,0.43001 0.85199,0.56402 0.326,0.13399 0.68199,0.20199 1.06799,0.204 0.38599,-0.002 0.74199,-0.07 1.06799,-0.204 0.32599,-0.13401 0.60999,-0.32201 0.85199,-0.56399 l -1e-5,7.39187 c -1e-5,0.55697 0.096,1.08697 0.28799,1.58998 0.192,0.50298 0.47999,0.94897 0.86399,1.33799 0.33999,0.38397 0.72799,0.67197 1.16399,0.86399 0.43598,0.19197 0.89598,0.28797 1.37998,0.28799 0.48299,-2e-5 0.94498,-0.096 1.38598,-0.28799 0.44099,-0.19202 0.84298,-0.48002 1.20599,-0.86399 0.36298,-0.38902 0.64498,-0.83501 0.84599,-1.33799 0.20098,-0.50301 0.30298,-1.03301 0.30599,-1.58998 v -7.3919 c 0.242,0.242 0.52601,0.43001 0.85202,0.56402 0.32599,0.13399 0.68199,0.20199 1.068,0.204 0.36198,-0.002 0.70598,-0.07 1.03199,-0.204 0.32598,-0.13401 0.62197,-0.32201 0.88799,-0.56399 l -5e-5,7.39187 c -0.055,2.24096 -0.797,4.10693 -2.22597,5.59793 -1.42899,1.49096 -3.21497,2.26495 -5.35793,2.32197 z m 5.66393,-15.3598 c -0.39001,-0.005 -0.73801,-0.10301 -1.04399,-0.294 -0.30601,-0.191 -0.534,-0.445 -0.68399,-0.76199 -0.13601,-0.24 -0.20001,-0.528 -0.192,-0.86399 -0.003,-0.557 -0.10501,-1.08699 -0.30599,-1.58997 -0.20101,-0.503 -0.48301,-0.949 -0.84599,-1.33799 -0.36301,-0.363 -0.765,-0.64499 -1.20599,-0.84599 -0.441,-0.201 -0.903,-0.303 -1.38598,-0.30599 -0.484,0.003 -0.94399,0.10499 -1.37998,0.30599 -0.436,0.201 -0.824,0.48299 -1.16399,0.84599 -0.384,0.38899 -0.67199,0.83498 -0.86399,1.33798 -0.192,0.50299 -0.288,1.03298 -0.28799,1.58998 0.008,0.33599 -0.056,0.62399 -0.192,0.86399 -0.171,0.31699 -0.405,0.57099 -0.70199,0.76199 -0.297,0.19099 -0.639,0.28899 -1.02599,0.294 -0.38699,-0.005 -0.72899,-0.10301 -1.02598,-0.294 -0.297,-0.191 -0.531,-0.445 -0.70199,-0.76199 -0.05,-0.12 -0.094,-0.252 -0.132,-0.39599 -0.038,-0.14401 -0.058,-0.30001 -0.06,-0.468 0.056,-2.24097 0.79599,-4.10695 2.21997,-5.59792 1.42398,-1.49098 3.19595,-2.26497 5.31593,-2.32197 h 0.048 c 1.70797,0.031 3.19995,0.55699 4.47594,1.57799 1.27597,1.02098 2.16796,2.35095 2.67597,3.98993 0.12098,0.36199 0.21498,0.74199 0.28199,1.13999 0.067,0.39799 0.10099,0.80198 0.102,1.21198 -0.002,0.16799 -0.022,0.32399 -0.06,0.468 -0.038,0.14399 -0.082,0.27599 -0.13199,0.39599 -0.17402,0.31699 -0.41401,0.57099 -0.71999,0.76199 -0.30602,0.19099 -0.64201,0.28899 -1.00799,0.294 z" />
            <path
               inkscape:connector-curvature="0"
               style="font-style:normal;font-variant:normal;font-weight:bold;font-stretch:normal;font-size:48px;line-height:125%;font-family:Slot;-inkscape-font-specification:'Slot Bold';letter-spacing:0px;word-spacing:0px;fill:#ffffff;fill-opacity:1;stroke:none;stroke-width:1"
               id="path3006-7"
               d="m 102.58749,126.6479 c -2.11998,-0.057 -3.89195,-0.83101 -5.31593,-2.32197 -1.42399,-1.491 -2.16397,-3.35697 -2.21997,-5.59793 v -7.3919 c 0.242,0.242 0.52599,0.43001 0.85199,0.56402 0.326,0.13399 0.68199,0.20199 1.06799,0.204 0.38599,-0.002 0.74199,-0.07 1.06799,-0.204 0.32599,-0.13401 0.60999,-0.32201 0.85199,-0.56399 l -10e-6,7.39187 c -1e-5,0.55698 0.096,1.08697 0.28799,1.58998 0.192,0.50298 0.47999,0.94897 0.86399,1.33799 0.33999,0.38397 0.72799,0.67197 1.16399,0.86399 0.43598,0.19197 0.89598,0.28797 1.37998,0.28799 0.48299,-2e-5 0.94498,-0.096 1.38598,-0.28799 0.44099,-0.19202 0.84298,-0.48002 1.20599,-0.86399 0.36298,-0.38902 0.64498,-0.83501 0.84599,-1.33799 0.20098,-0.50301 0.30298,-1.033 0.30599,-1.58998 v -7.3919 c 0.242,0.242 0.52601,0.43001 0.85202,0.56402 0.32599,0.13399 0.68199,0.20199 1.068,0.204 0.36198,-0.002 0.70598,-0.07 1.03199,-0.204 0.32598,-0.13401 0.62197,-0.32201 0.88799,-0.56399 l -5e-5,7.39187 c -0.055,2.24096 -0.797,4.10693 -2.22597,5.59793 -1.42899,1.49096 -3.21497,2.26495 -5.35793,2.32197 z m 5.66393,-15.3598 c -0.39001,-0.005 -0.73801,-0.10301 -1.04399,-0.294 -0.30601,-0.191 -0.534,-0.445 -0.68399,-0.76199 -0.13601,-0.24 -0.20001,-0.528 -0.192,-0.86399 -0.003,-0.557 -0.10501,-1.08699 -0.30599,-1.58997 -0.20101,-0.503 -0.48301,-0.949 -0.84599,-1.33799 -0.36301,-0.363 -0.765,-0.64499 -1.20599,-0.84599 -0.441,-0.201 -0.903,-0.303 -1.38598,-0.30599 -0.484,0.003 -0.94399,0.10499 -1.37998,0.30599 -0.436,0.201 -0.824,0.48299 -1.16399,0.84599 -0.384,0.38899 -0.67199,0.83498 -0.86399,1.33798 -0.192,0.50299 -0.288,1.03298 -0.28799,1.58998 0.008,0.33599 -0.056,0.62399 -0.192,0.86399 -0.171,0.31699 -0.405,0.57099 -0.70199,0.76199 -0.297,0.19099 -0.639,0.28899 -1.02599,0.294 -0.38699,-0.005 -0.72899,-0.10301 -1.02598,-0.294 -0.297,-0.191 -0.531,-0.445 -0.70199,-0.76199 -0.05,-0.12 -0.094,-0.252 -0.132,-0.39599 -0.038,-0.14401 -0.058,-0.30001 -0.06,-0.468 0.056,-2.24097 0.79599,-4.10695 2.21997,-5.59792 1.42398,-1.49098 3.19595,-2.26497 5.31593,-2.32197 h 0.048 c 1.70797,0.031 3.19995,0.55699 4.47594,1.57799 1.27597,1.02098 2.16796,2.35095 2.67597,3.98993 0.12098,0.36199 0.21498,0.74199 0.28199,1.13999 0.067,0.39799 0.10099,0.80198 0.102,1.21198 -0.002,0.16799 -0.022,0.32399 -0.06,0.468 -0.038,0.14399 -0.082,0.27599 -0.13199,0.39599 -0.17402,0.31699 -0.41401,0.57099 -0.71999,0.76199 -0.30602,0.19099 -0.64201,0.28899 -1.00799,0.294 z" />
            <path
               inkscape:connector-curvature="0"
               style="font-style:normal;font-variant:normal;font-weight:bold;font-stretch:normal;font-size:48px;line-height:125%;font-family:Slot;-inkscape-font-specification:'Slot Bold';letter-spacing:0px;word-spacing:0px;fill:#ffffff;fill-opacity:1;stroke:none;stroke-width:1"
               id="path3004-7-9"
               d="m 175.55476,119.52094 c 0.844,-0.43702 1.59199,-1.00301 2.24397,-1.69798 0.652,-0.69502 1.18399,-1.48901 1.59598,-2.38197 v 10.70386 c -0.014,0.54196 -0.20199,0.99396 -0.56399,1.35598 -0.36199,0.36197 -0.81399,0.54996 -1.35598,0.564 -0.54199,-0.014 -0.99399,-0.20204 -1.35599,-0.564 -0.36199,-0.36203 -0.54998,-0.81402 -0.56399,-1.35598 z"
               sodipodi:nodetypes="ccccccccc" />
            <path
               inkscape:connector-curvature="0"
               style="font-style:normal;font-variant:normal;font-weight:bold;font-stretch:normal;font-size:48px;line-height:125%;font-family:Slot;-inkscape-font-specification:'Slot Bold';letter-spacing:0px;word-spacing:0px;fill:#ffffff;fill-opacity:1;stroke:none;stroke-width:1"
               id="path3004-7-9-2"
               d="m 106.33149,119.52093 c 0.844,-0.43702 1.59199,-1.00301 2.24397,-1.69798 0.652,-0.69502 1.18399,-1.48901 1.59598,-2.38197 v 10.70387 c -0.014,0.54196 -0.20199,0.99396 -0.56399,1.35598 -0.36199,0.36197 -0.81399,0.54996 -1.35598,0.564 -0.54199,-0.014 -0.99399,-0.20204 -1.35599,-0.564 -0.36199,-0.36203 -0.54998,-0.81402 -0.56399,-1.35598 z"
               sodipodi:nodetypes="ccccccccc" />
          </g>
          <g
             transform="matrix(1.0982454,0,0,1.0982454,58.288616,96.209232)"
             id="g359"
             style="fill:#ffffff;fill-opacity:1">
            <g
               id="g169"
               transform="matrix(0.1594352,0,0,0.1594352,-7.0550076,-21.259687)"
               style="fill:#ffffff;fill-opacity:1">
              <path
                 id="path5702"
                 d="m 77.921875,170.52148 c -9.689705,0 -17.619141,7.92945 -17.619141,17.61914 L 44.25,346.69531 95.541016,311.46094 H 122.20703 V 170.52148 Z m 53.726565,0 v 140.93946 h 87.21484 c 9.6897,0 17.61914,-7.92944 17.61914,-17.61914 0.32395,-8.50429 0.28051,-27.90014 0.1836,-50.35157 a 19.411005,19.411005 0 0 1 -11.75196,3.98047 19.411005,19.411005 0 0 1 -19.41015,-19.41015 19.411005,19.411005 0 0 1 19.41015,-19.41211 19.411005,19.411005 0 0 1 11.63086,3.90039 c -0.0302,-8.19966 -0.0625,-16.46158 -0.0625,-24.40821 0,-9.68969 -7.92944,-17.61914 -17.61914,-17.61914 z m 37.03125,21.54297 a 12.588462,12.588462 0 0 1 12.58984,12.58985 12.588462,12.588462 0 0 1 -12.58984,12.58789 12.588462,12.588462 0 0 1 -12.58789,-12.58789 12.588462,12.588462 0 0 1 12.58789,-12.58985 z"
                 style="fill:#ffffff;fill-opacity:1;stroke:none;stroke-width:6.01399708;stroke-miterlimit:4;stroke-dasharray:none;stroke-opacity:1"
                 inkscape:connector-curvature="0" />
              <path
                 id="path5702-2"
                 d="m 261.13672,133.34375 c -9.6897,0 -17.61719,7.92749 -17.61719,17.61719 v 69.29101 l -7.87109,0.10157 c -2.43589,-2.60159 -6.38142,-5.06836 -10.22852,-5.06836 -4.59416,0 -8.64446,2.3211 -11.05273,5.84961 l 20.29883,7.61132 -20.24414,7.51758 c 2.4145,3.48318 6.43756,5.76758 10.99804,5.76758 4.01277,0 8.55294,-3.12175 11.01953,-5.92578 l 7.08008,0.0449 V 256.666 c 0,9.6897 7.92749,17.61718 17.61719,17.61718 h 89.50781 V 133.34375 Z m 98.94922,0 V 274.2832 h 24.375 L 435.75,309.51953 419.69727,150.96094 c 0,-9.6897 -7.92943,-17.61719 -17.61915,-17.61719 z m -45.14063,22.88281 c 6.95273,3.2e-4 12.58866,5.63712 12.58789,12.58985 -3.2e-4,6.95197 -5.63592,12.58757 -12.58789,12.58789 -6.95273,7.6e-4 -12.58952,-5.63516 -12.58984,-12.58789 -7.7e-4,-6.9535 5.63634,-12.59061 12.58984,-12.58985 z"
                 style="fill:#ffffff;fill-opacity:1;stroke-width:0.3454439"
                 inkscape:connector-curvature="0"
                 sodipodi:nodetypes="ssccscccsccssccscccccscccccc" />
            </g>
            <g
               id="g150"
               transform="translate(-44.250001,-312.66003)"
               style="fill:#ffffff;fill-opacity:1" />
          </g>
        </g>
      </g>
    </g>
  </g>
</svg>
