<?xml version="1.0" encoding="UTF-8" standalone="no"?>
<svg
   xmlns:dc="http://purl.org/dc/elements/1.1/"
   xmlns:cc="http://creativecommons.org/ns#"
   xmlns:rdf="http://www.w3.org/1999/02/22-rdf-syntax-ns#"
   xmlns:svg="http://www.w3.org/2000/svg"
   xmlns="http://www.w3.org/2000/svg"
   xmlns:sodipodi="http://sodipodi.sourceforge.net/DTD/sodipodi-0.dtd"
   xmlns:inkscape="http://www.inkscape.org/namespaces/inkscape"
   height="150pt"
   viewBox="0 0 150 150"
   width="150pt"
   version="1.1"
   id="svg131"
   sodipodi:docname="multiplataforma.svg"
   inkscape:version="0.92.1 r15371">
  <metadata
     id="metadata137">
    <rdf:RDF>
      <cc:Work
         rdf:about="">
        <dc:format>image/svg+xml</dc:format>
        <dc:type
           rdf:resource="http://purl.org/dc/dcmitype/StillImage" />
        <dc:title></dc:title>
      </cc:Work>
    </rdf:RDF>
  </metadata>
  <defs
     id="defs135" />
  <sodipodi:namedview
     pagecolor="#ffffff"
     bordercolor="#666666"
     borderopacity="1"
     objecttolerance="10"
     gridtolerance="10"
     guidetolerance="10"
     inkscape:pageopacity="0"
     inkscape:pageshadow="2"
     inkscape:window-width="1920"
     inkscape:window-height="1018"
     id="namedview133"
     showgrid="false"
     fit-margin-top="0"
     fit-margin-left="0"
     fit-margin-right="0"
     fit-margin-bottom="0"
     inkscape:zoom="0.35685484"
     inkscape:cx="330.66667"
     inkscape:cy="330.66667"
     inkscape:window-x="-8"
     inkscape:window-y="-8"
     inkscape:window-maximized="1"
     inkscape:current-layer="svg131" />
  <path
     d="m 14.516129,48.3871 h 9.67742 v 4.83871 h -9.67742 z m 0,0"
     id="path119"
     inkscape:connector-curvature="0"
     style="fill:#304ffe;fill-opacity:1;stroke-width:0.30241936" />
  <path
     d="m 142.74194,38.70968 c 4.00115,0 7.25806,-3.25692 7.25806,-7.25807 V 7.25806 C 150,3.25691 146.74309,0 142.74194,0 h -33.87097 c -4.00115,0 -7.25807,3.25691 -7.25807,7.25806 v 24.19355 c 0,4.00115 3.25692,7.25807 7.25807,7.25807 h 7.25806 v 4.83871 h -4.83871 v 4.83871 h 12.09678 v 24.19355 h -9.98457 c -1.93028,-1.88422 -4.30711,-3.32662 -6.96745,-4.12047 0.0118,-0.24453 0.0165,-0.4808 0.0165,-0.71824 0,-10.6721 -8.682747,-19.35484 -19.354841,-19.35484 -6.621331,0 -12.776038,3.44474 -16.301112,8.95445 -2.483145,-1.11518 -5.168301,-1.69639 -7.892438,-1.69639 -8.029468,0 -15.259183,5.0608 -18.087277,12.48425 -1.83814,0.39456 -3.551062,1.10099 -5.106867,2.03188 H 21.774194 v -7.25807 h 9.677419 c 4.00115,0 7.258065,-3.25691 7.258065,-7.25806 V 7.25806 C 38.709678,3.25691 35.452763,0 31.451613,0 H 7.2580647 C 3.2569146,0 0,3.25691 0,7.25806 v 48.3871 c 0,4.00115 3.2569146,7.25806 7.2580647,7.25806 H 16.935484 V 75 h 17.62774 c -1.028934,1.46839 -1.82751,3.08917 -2.352019,4.83871 H 21.774194 v 26.6129 h -9.67742 c -4.0011496,0 -7.2580644,3.25692 -7.2580644,7.25807 v 21.77419 H 0 v 7.25806 C 0,146.74309 3.2569146,150 7.2580647,150 H 45.967741 c 4.001152,0 7.258066,-3.25691 7.258066,-7.25807 v -7.25806 h -4.838711 v -21.77419 c 0,-4.00115 -3.256914,-7.25807 -7.258062,-7.25807 H 26.612903 V 84.67742 h 4.83871 c 0,9.33602 7.599468,16.93548 16.935483,16.93548 H 101.6129 c 8.51382,0 15.5616,-6.32363 16.74175,-14.51612 h 9.87116 v 19.35483 H 111.29032 V 150 H 150 V 106.45161 H 133.06452 V 82.25806 H 118.3452 c -0.25162,-1.70347 -0.77377,-3.32425 -1.50501,-4.83871 h 11.38562 V 48.3871 h 12.09677 v -4.83871 h -4.83871 v -4.83871 z m -108.870972,0 H 4.8387096 V 14.51613 H 33.870968 Z M 7.2580647,4.83871 H 31.451613 c 1.334898,0 2.419355,1.08446 2.419355,2.41935 V 9.67742 H 4.8387096 V 7.25806 c 0,-1.33489 1.084457,-2.41935 2.4193551,-2.41935 z M 4.8387096,55.64516 V 43.54839 H 33.870968 v 12.09677 c 0,1.3349 -1.084457,2.41935 -2.419355,2.41935 H 7.2580647 c -1.3348981,0 -2.4193551,-1.08445 -2.4193551,-2.41935 z m 43.5483864,87.09677 c 0,1.3349 -1.084457,2.41936 -2.419355,2.41936 H 7.2580647 c -1.3348981,0 -2.4193551,-1.08446 -2.4193551,-2.41936 v -2.41935 H 48.387096 Z m -4.83871,-29.03225 v 21.77419 H 9.6774193 v -21.77419 c 0,-1.3349 1.0844567,-2.41936 2.4193547,-2.41936 h 29.03226 c 1.334895,0 2.419352,1.08446 2.419352,2.41936 z m 72.580644,31.45161 v -14.51613 h 29.03226 v 14.51613 z m 29.03226,-19.35484 h -29.03226 v -14.51613 h 29.03226 z M 101.6129,96.77419 H 48.387096 c -6.669765,0 -12.096773,-5.427 -12.096773,-12.09677 0,-6.11572 4.577637,-11.27457 10.644926,-11.99991 l 1.587699,-0.19137 0.447723,-1.53572 c 1.78971,-6.16298 7.521499,-10.46655 13.932554,-10.46655 2.670976,0 5.293519,0.75014 7.592383,2.16537 l 2.309488,1.42468 1.151793,-2.4607 c 2.381554,-5.09742 7.539222,-8.38741 13.139886,-8.38741 8.005844,0 14.516125,6.51028 14.516125,14.51613 0,0.66744 -0.0602,1.3786 -0.19137,2.23743 l -0.36503,2.39336 2.39218,0.36267 c 5.84993,0.89308 10.261,6.02712 10.261,11.94202 0,6.66977 -5.42701,12.09677 -12.09678,12.09677 z m 7.25807,-91.93548 h 33.87097 c 1.33489,0 2.41935,1.08446 2.41935,2.41935 V 24.19355 H 106.45161 V 7.25806 c 0,-1.33489 1.08446,-2.41935 2.41936,-2.41935 z m -2.41936,26.6129 v -2.41935 h 38.70968 v 2.41935 c 0,1.3349 -1.08446,2.41936 -2.41935,2.41936 h -33.87097 c -1.3349,0 -2.41936,-1.08446 -2.41936,-2.41936 z m 24.19355,12.09678 h -9.67742 v -4.83871 h 9.67742 z m 0,0"
     id="path121"
     inkscape:connector-curvature="0"
     style="fill:#304ffe;fill-opacity:1;stroke-width:0.30241936" />
  <path
     d="m 120.96774,116.12903 h 4.83871 v 4.83871 h -4.83871 z m 0,0"
     id="path123"
     inkscape:connector-curvature="0"
     style="fill:#304ffe;fill-opacity:1;stroke-width:0.30241936" />
  <path
     d="m 135.48387,135.48387 h 4.83871 v 4.83871 h -4.83871 z m 0,0"
     id="path125"
     inkscape:connector-curvature="0"
     style="fill:#304ffe;fill-opacity:1;stroke-width:0.30241936" />
  <path
     d="m 130.64516,116.12903 h 9.67742 v 4.83871 h -9.67742 z m 0,0"
     id="path127"
     inkscape:connector-curvature="0"
     style="fill:#304ffe;fill-opacity:1;stroke-width:0.30241936" />
  <path
     d="m 120.96774,135.48387 h 9.67742 v 4.83871 h -9.67742 z m 0,0"
     id="path129"
     inkscape:connector-curvature="0"
     style="fill:#304ffe;fill-opacity:1;stroke-width:0.30241936" />
</svg>
