<?xml version="1.0" encoding="UTF-8" standalone="no"?>
<svg
   xmlns:dc="http://purl.org/dc/elements/1.1/"
   xmlns:cc="http://creativecommons.org/ns#"
   xmlns:rdf="http://www.w3.org/1999/02/22-rdf-syntax-ns#"
   xmlns:svg="http://www.w3.org/2000/svg"
   xmlns="http://www.w3.org/2000/svg"
   xmlns:sodipodi="http://sodipodi.sourceforge.net/DTD/sodipodi-0.dtd"
   xmlns:inkscape="http://www.inkscape.org/namespaces/inkscape"
   height="150pt"
   viewBox="0 -44 191.25951 149.99999"
   width="190.79556pt"
   version="1.1"
   id="svg3728"
   sodipodi:docname="personaje.svg"
   inkscape:version="0.92.1 r15371"
   inkscape:export-filename="C:\Users\Rodrigo\nuevaIdentidad2019\ICONOSeBOOK\chat_b.png"
   inkscape:export-xdpi="96"
   inkscape:export-ydpi="96">
  <metadata
     id="metadata3734">
    <rdf:RDF>
      <cc:Work
         rdf:about="">
        <dc:format>image/svg+xml</dc:format>
        <dc:type
           rdf:resource="http://purl.org/dc/dcmitype/StillImage" />
        <dc:title></dc:title>
      </cc:Work>
    </rdf:RDF>
  </metadata>
  <defs
     id="defs3732" />
  <sodipodi:namedview
     pagecolor="#ffffff"
     bordercolor="#666666"
     borderopacity="1"
     objecttolerance="10"
     gridtolerance="10"
     guidetolerance="10"
     inkscape:pageopacity="0"
     inkscape:pageshadow="2"
     inkscape:window-width="1920"
     inkscape:window-height="1018"
     id="namedview3730"
     showgrid="false"
     inkscape:zoom="0.86131388"
     inkscape:cx="-402.23393"
     inkscape:cy="189.07813"
     inkscape:window-x="-8"
     inkscape:window-y="-8"
     inkscape:window-maximized="1"
     inkscape:current-layer="g268"
     fit-margin-top="0"
     fit-margin-left="0"
     fit-margin-right="0"
     fit-margin-bottom="0" />
  <g
     id="g230"
     transform="matrix(0.75182372,0,0,0.75182372,-55.530089,78.366216)">
    <g
       id="g174" />
    <g
       id="g176" />
    <g
       id="g178" />
    <g
       id="g180" />
    <g
       id="g182" />
    <g
       id="g184" />
    <g
       id="g186" />
    <g
       id="g188" />
    <g
       id="g190" />
    <g
       id="g192" />
    <g
       id="g194" />
    <g
       id="g196" />
    <g
       id="g198" />
    <g
       id="g200" />
    <g
       id="g202" />
    <g
       id="g204" />
  </g>
  <g
     id="g268"
     transform="matrix(5.2916665,0,0,5.2916665,0,188.83332)"
     style="fill:#5351b5;fill-opacity:1">
    <path
       inkscape:connector-curvature="0"
       style="fill:#5351b5;fill-opacity:1;stroke-width:0.08772665"
       id="path3720"
       d="m 9.2431674,-39.237254 c -0.012679,-0.0127 -0.026387,-0.0247 -0.039066,-0.037 -0.015078,-0.0144 -0.029813,-0.0291 -0.045234,-0.0432 -0.011309,-0.0106 -0.023645,-0.0202 -0.034954,-0.0305 -0.017477,-0.0154 -0.034611,-0.0308 -0.052773,-0.0456 -0.010966,-0.009 -0.021932,-0.0175 -0.03324,-0.026 -0.018847,-0.0151 -0.038038,-0.0308 -0.057571,-0.0452 -0.011651,-0.009 -0.023645,-0.0168 -0.035639,-0.0254 -0.019533,-0.0137 -0.03838,-0.0278 -0.058256,-0.0408 -0.0096,-0.007 -0.019533,-0.0123 -0.029128,-0.0185 -0.022274,-0.0147 -0.044891,-0.0295 -0.067509,-0.0432 -0.00548,-0.003 -0.010966,-0.006 -0.016106,-0.009 -0.027757,-0.0161 -0.055172,-0.0322 -0.083272,-0.0473 -0.00377,-0.002 -0.00754,-0.004 -0.011651,-0.006 -0.029813,-0.0158 -0.059627,-0.0312 -0.090126,-0.0456 -0.00377,-0.002 -0.00754,-0.003 -0.010966,-0.005 -0.030842,-0.0144 -0.06134,-0.0281 -0.09321,-0.0411 l -0.00754,-0.003 c -0.067851,-0.0278 -0.1367303,-0.0528 -0.2066373,-0.0737 -0.00754,-0.002 -0.014735,-0.004 -0.021932,-0.006 -0.029471,-0.009 -0.058599,-0.0168 -0.088412,-0.0243 l -0.00308,-6.9e-4 c -0.035982,-0.009 -0.072306,-0.0171 -0.1086302,-0.0243 -0.00891,-0.002 -0.018505,-0.003 -0.027757,-0.005 -0.028443,-0.005 -0.056885,-0.0106 -0.08567,-0.0147 -0.014735,-0.002 -0.029471,-0.003 -0.044206,-0.005 -0.023302,-0.003 -0.046947,-0.006 -0.07025,-0.009 -0.023302,-0.002 -0.047633,-0.003 -0.071278,-0.005 -0.015078,-10e-4 -0.029813,-0.002 -0.044549,-0.003 -0.039066,-0.002 -0.078132,-0.003 -0.1171974,-0.003 -1.2929399,0.002 -2.3405195,1.04964 -2.3422329,2.34258 v 1.51294 c 0,0.29059 0.2357653,0.52636 0.5263599,0.52636 h 3.6324314 c 0.2905946,0 0.5263599,-0.23577 0.5263599,-0.52636 v -1.51329 c 0.00206,-0.62128 -0.2450177,-1.21755 -0.6857071,-1.65549 z m -0.3663273,2.64277 H 6.2967858 v -0.98659 c 3.426e-4,-0.52156 0.3145822,-0.99206 0.7967361,-1.1915 0.4818111,-0.19944 1.0366137,-0.0888 1.4053397,0.28031 0.242619,0.24091 0.3783212,0.5692 0.3772932,0.91119 z m 0,0" />
    <path
       inkscape:connector-curvature="0"
       style="fill:#5351b5;fill-opacity:1;stroke-width:0.08772665"
       id="path3724"
       d="m 19.452699,-33.695054 h -7.264521 c -0.290594,0 -0.526359,0.23576 -0.526359,0.52636 0.01062,2.28946 1.869331,4.13994 4.158791,4.13994 2.289117,0 4.148168,-1.85048 4.158449,-4.13994 0,-0.2906 -0.235423,-0.52636 -0.52636,-0.52636 z m -1.436181,2.72227 c -0.820382,0.82106 -2.030393,1.11611 -3.136571,0.76486 -1.106521,-0.35125 -1.924503,-1.29019 -2.12086,-2.43441 h 6.123389 c -0.107945,0.63328 -0.410534,1.21686 -0.865958,1.66955 z m 0,0" />
    <path
       inkscape:connector-curvature="0"
       style="fill:#5351b5;fill-opacity:1;stroke-width:0.08772665"
       id="path3726"
       d="m 27.826824,-19.539534 h -4.403809 c -0.274831,-1.75042 -1.850141,-2.99505 -3.617011,-2.85729 -1.766527,0.13776 -3.129717,1.61164 -3.129717,3.38365 0,1.77201 1.36319,3.24588 3.129717,3.38364 1.76687,0.1381 3.34218,-1.10652 3.617011,-2.85728 h 4.403809 c 3.527571,-0.004 6.386569,-2.86277 6.390338,-6.39034 v -5.10048 c 1.611977,-1.27238 2.295628,-3.39222 1.730888,-5.36641 -0.56474,-1.97453 -2.266158,-3.41208 -4.307173,-3.63928 v -1.80045 c -0.0021,-1.79463 -1.456057,-3.24863 -3.250683,-3.25069 H 3.2506836 C 1.4563994,-44.032404 0.00205609,-42.578404 0,-40.783774 v 13.66959 c 0.00205609,1.79428 1.4563994,3.24828 3.2506836,3.25068 h 1.1082342 v 5.94006 c 0,0.20732 0.1216522,0.39545 0.3108128,0.48009 0.1891606,0.085 0.4105332,0.0511 0.5654256,-0.087 l 7.1151108,-6.33311 h 16.039927 c 1.794626,-0.002 3.248627,-1.4564 3.251026,-3.25068 v -1.80011 c 0.526702,-0.0589 1.040726,-0.20047 1.523565,-0.42013 v 4.45761 c -0.0038,2.94638 -2.391579,5.33419 -5.337961,5.33728 z m -7.757297,2.86756 c -1.293283,0 -2.341548,-1.04826 -2.341205,-2.3412 0,-1.29329 1.048265,-2.34155 2.341205,-2.34121 1.293282,0 2.341205,1.04827 2.341205,2.34121 -0.0014,1.29259 -1.048951,2.33983 -2.341205,2.3412 z m 10.518288,-10.44221 c -0.0014,1.21309 -0.984526,2.19659 -2.197964,2.19796 h -16.23971 c -0.129191,0 -0.253585,0.0473 -0.349879,0.13296 l -6.3886244,5.68647 v -5.29307 c 0,-0.29093 -0.2354227,-0.52636 -0.5263599,-0.52636 H 3.2506836 c -1.2134378,-0.001 -2.1965931,-0.98487 -2.1979638,-2.19796 v -13.66959 c 0.00137,-1.21344 0.984526,-2.1966 2.1979638,-2.19797 H 28.390194 c 1.213437,10e-4 2.196593,0.98453 2.198306,2.19797 z m 1.052719,-10.8082 c 1.978648,0.281 3.44944,1.97488 3.44944,3.9734 0,1.99852 -1.470792,3.69275 -3.44944,3.9734 z m 0,0" />
    <rect
       y="-34.713329"
       x="10.201786"
       height="2.2913101"
       width="10.856446"
       id="rect130"
       style="fill:#e0e0e0;fill-opacity:1;stroke-width:0.75182372" />
    <path
       sodipodi:nodetypes="ccccc"
       inkscape:connector-curvature="0"
       id="rect234"
       d="m 85.674296,-0.28742873 3.344926,0.20099342 26.708958,13.05370631 -0.0796,1.540532 z"
       style="fill:#5351b5;fill-opacity:1;stroke-width:0.98251474"
       transform="matrix(0.75182372,0,0,0.75182372,-55.530089,-43.435231)" />
    <circle
       r="2.6494267"
       cy="-37.33197"
       cx="22.803991"
       id="path232"
       style="fill:#5351b5;fill-opacity:1;stroke-width:0.78520018" />
  </g>
</svg>
