<?xml version="1.0" encoding="UTF-8" standalone="no"?>
<svg
   xmlns:dc="http://purl.org/dc/elements/1.1/"
   xmlns:cc="http://creativecommons.org/ns#"
   xmlns:rdf="http://www.w3.org/1999/02/22-rdf-syntax-ns#"
   xmlns:svg="http://www.w3.org/2000/svg"
   xmlns="http://www.w3.org/2000/svg"
   xmlns:sodipodi="http://sodipodi.sourceforge.net/DTD/sodipodi-0.dtd"
   xmlns:inkscape="http://www.inkscape.org/namespaces/inkscape"
   height="150pt"
   version="1.1"
   viewBox="0 0 184.26822 150"
   width="184.26814pt"
   id="svg17"
   sodipodi:docname="servicios.svg"
   inkscape:version="0.92.1 r15371">
  <metadata
     id="metadata23">
    <rdf:RDF>
      <cc:Work
         rdf:about="">
        <dc:format>image/svg+xml</dc:format>
        <dc:type
           rdf:resource="http://purl.org/dc/dcmitype/StillImage" />
        <dc:title></dc:title>
      </cc:Work>
    </rdf:RDF>
  </metadata>
  <defs
     id="defs21" />
  <sodipodi:namedview
     pagecolor="#ffffff"
     bordercolor="#666666"
     borderopacity="1"
     objecttolerance="10"
     gridtolerance="10"
     guidetolerance="10"
     inkscape:pageopacity="0"
     inkscape:pageshadow="2"
     inkscape:window-width="1920"
     inkscape:window-height="1018"
     id="namedview19"
     showgrid="false"
     fit-margin-top="0"
     fit-margin-left="0"
     fit-margin-right="0"
     fit-margin-bottom="0"
     inkscape:zoom="1.9262042"
     inkscape:cx="396.89507"
     inkscape:cy="207.5139"
     inkscape:window-x="-8"
     inkscape:window-y="-8"
     inkscape:window-maximized="1"
     inkscape:current-layer="surface1" />
  <g
     id="surface1"
     transform="matrix(0.27895421,-0.27961196,0.27961196,0.27895421,-122.63691,-3.9193821)"
     style="fill:#5351b5;fill-opacity:1">
    <path
       d="m 417.04906,484.02184 -52.34463,-52.34651 c -2.92043,-2.92043 -7.65535,-2.92043 -10.5739,0 l -144.27251,144.2725 -64.20443,-64.20817 h 15.59936 c 11.34992,14.15977 28.51259,22.41306 46.66311,22.43743 22.97916,0.004 43.87202,-13.32937 53.54056,-34.17537 1.10218,-2.31311 0.93911,-5.03109 -0.42551,-7.19985 -1.35899,-2.17064 -3.74144,-3.48652 -6.30198,-3.4959 h -37.39384 v -29.91095 h 37.39384 c 2.56054,-0.006 4.94299,-1.32526 6.30198,-3.49214 1.36462,-2.16877 1.52769,-4.88675 0.42551,-7.20172 -9.66854,-20.84414 -30.5614,-34.17913 -53.54056,-34.17164 -18.15052,0.0168 -35.31506,8.27018 -46.66311,22.43369 h -30.55578 l 91.92788,-91.92601 c 0.8735,-0.87537 1.52206,-1.95507 1.87447,-3.13786 l 22.43369,-74.78207 c 0.79103,-2.63738 0.0712,-5.49033 -1.87635,-7.43228 -1.94384,-1.9457 -4.79865,-2.66738 -7.43415,-1.87448 l -74.77834,22.42994 c -1.18654,0.35428 -2.26249,1.00096 -3.13786,1.87822 L 3.5592098,438.26221 c -17.7306338,10.15214 -29.7178848,27.98401 -32.4171248,48.23956 -2.701115,20.24804 4.195069,40.60106 18.647251,55.03638 L 135.19403,686.93722 c 11.88415,11.92726 27.92027,18.78784 44.75303,19.14399 v 0.0862 h 37.38823 c 2.50242,0 4.83614,-1.25028 6.22137,-3.3272 2.03192,-2.79671 5.28039,-4.44812 8.73504,-4.44812 3.45653,0 6.70686,1.65141 8.73692,4.44812 1.38523,2.07692 3.71708,3.3272 6.21949,3.3272 h 22.43369 c 4.13134,0 7.47727,-3.34781 7.47727,-7.47915 v -14.95642 h 73.85796 l 29.01683,7.25046 c 1.19029,0.30179 2.44057,0.30179 3.6346,0 l 29.91284,-7.47539 c 3.32531,-0.83415 5.65903,-3.82205 5.65903,-7.25234 v -29.91282 c 0,-3.42842 -2.33372,-6.4182 -5.65903,-7.25234 l -29.91284,-7.47914 c -1.19403,-0.30742 -2.44431,-0.30742 -3.6346,0 l -29.01683,7.25607 H 272.7803 L 417.04906,494.59761 c 2.91668,-2.92417 2.91668,-7.65534 0,-10.57577 z m -139.88999,169.7972 h 74.7802 c 0.61108,0 1.22403,-0.0749 1.81637,-0.22493 l 28.09646,-7.0199 22.43181,5.60842 v 18.22924 l -22.43181,5.60842 -28.09646,-7.02177 c -0.59234,-0.14434 -1.20529,-0.22307 -1.81637,-0.22307 h -74.7802 z M 164.99064,451.91775 c 2.44432,0 4.73117,-1.19592 6.13328,-3.19972 8.39013,-12.03411 22.12064,-19.2096 36.79214,-19.23209 12.65457,-0.0243 24.70368,5.42848 33.03945,14.95642 h -23.62022 c -8.25893,0 -14.95454,6.69373 -14.95454,14.95266 v 29.91095 c 0,8.2608 6.69561,14.95829 14.95454,14.95829 h 23.62022 c -8.33577,9.5242 -20.38488,14.98079 -33.03945,14.95455 -14.6715,-0.0206 -28.40201,-7.20173 -36.79214,-19.23397 -1.40211,-2.00381 -3.68896,-3.19785 -6.13328,-3.19785 h -34.29347 l -14.95266,-14.95641 h 49.24613 V 466.87604 H 100.78622 L 85.831674,451.91775 Z M 109.55125,436.96321 H 78.356281 l 112.809499,-112.8095 15.59936,15.59749 z m 119.06085,-160.84472 -4.48373,14.95828 -10.47267,-10.4708 z m -31.23432,9.38173 21.86571,21.86572 -5.47345,18.24424 -34.6365,-34.6365 z M 164.99064,297.97858 180.59,313.57794 60.143905,434.02403 c -7.619727,-2.99915 -15.739944,-4.53809 -23.931387,-4.53809 -0.963477,0 -1.904464,0.10687 -2.862317,0.14058 z m 16.6172,393.23432 c -13.44933,0.0338 -26.35695,-5.30851 -35.84178,-14.84396 L 0.36510832,530.968 c -19.79442732,-19.7963 -19.79442732,-51.89102 0,-71.68358 19.79817868,-19.7963 51.88914468,-19.7963 71.68169768,0 l 145.402824,145.3972 c 14.49342,14.49904 18.83282,36.29915 10.98816,55.23882 -7.84467,18.93967 -26.33072,31.29246 -46.82995,31.29246 z m 80.59669,-14.9583 v 14.9583 h -11.3743 c -4.8099,-5.11545 -11.5205,-8.0115 -18.53853,-8.00213 -0.34116,0 -0.67106,0.0881 -1.00847,0.10307 2.70674,-3.14724 5.11544,-6.5419 7.18861,-10.13903 l 23.73269,-23.73269 z m -15.097,-32.90073 c 0,-0.95787 0.14058,-1.89885 0.14058,-2.86795 0.0488,-17.41761 -6.87556,-34.13227 -19.2227,-46.41381 l -7.59163,-7.55225 26.81433,-26.81432 17.14767,17.1458 10.5739,-10.57203 -17.14766,-17.14768 11.85978,-11.85978 9.66854,9.66665 10.57576,-10.57015 -9.67039,-9.6704 11.86166,-11.85792 17.14391,17.14581 10.57577,-10.57578 -17.14954,-17.1458 11.86166,-11.85791 9.66853,9.66665 10.57389,-10.57577 -9.66852,-9.66665 11.85979,-11.85979 17.14767,17.14579 10.5739,-10.57389 -17.14767,-17.14767 11.86166,-11.85792 41.77073,41.76887 z m 0,0"
       style="fill:#5351b5;fill-opacity:1;fill-rule:nonzero;stroke:none;stroke-width:0.47986495"
       id="path10"
       inkscape:connector-curvature="0" />
    <path
       d="M 17.878304,485.36959 4.6951403,478.29345 c -2.768596,5.18104 -4.21381406,10.96191 -4.21568869,16.83277 H 15.433992 c -0.01125,-3.4078 0.830392,-6.76123 2.444312,-9.75663 z m 0,0"
       style="fill:#5351b5;fill-opacity:1;fill-rule:nonzero;stroke:none;stroke-width:0.47986495"
       id="path12"
       inkscape:connector-curvature="0" />
    <path
       d="m 19.38163,507.3234 -12.0697263,8.83626 c 1.1021898,1.50146 2.3168479,2.91855 3.6327273,4.23256 l 36.589701,36.59533 10.575771,-10.57203 -36.5822,-36.58783 c -0.776033,-0.77602 -1.495831,-1.61766 -2.146273,-2.50429 z m 0,0"
       style="fill:#5351b5;fill-opacity:1;fill-rule:nonzero;stroke:none;stroke-width:0.47986495"
       id="path14"
       inkscape:connector-curvature="0" />
  </g>
</svg>
